<svg width="48" height="48" viewBox="0 0 48 48" fill="none" xmlns="http://www.w3.org/2000/svg">
  <rect x="2" y="2" width="44" height="44" rx="13" fill="#00A896"/>
  <rect x="3.2" y="3.2" width="41.6" height="41.6" rx="11.8" stroke="#ffffff" stroke-opacity="0.22" stroke-width="1.2"/>
  <path d="M24 37.5C24 37.5 9.5 28 9.5 17.5C9.5 12 13.8 8 19 8C21.8 8 23.3 9.4 24 10.5C24.7 9.4 26.2 8 29 8C34.2 8 38.5 12 38.5 17.5C38.5 28 24 37.5 24 37.5Z" fill="#ffffff"/>
  <rect x="21.75" y="13.5" width="4.5" height="12" rx="2.25" fill="#00A896"/>
  <rect x="18" y="17.25" width="12" height="4.5" rx="2.25" fill="#00A896"/>
  <circle cx="24" cy="19.5" r="1.6" fill="#ffffff"/>
</svg>